<svg xmlns="http://www.w3.org/2000/svg" version="1.1" xmlns:xlink="http://www.w3.org/1999/xlink" xmlns:svgjs="http://svgjs.dev/svgjs" width="2000" height="2242" viewBox="0 0 2000 2242"><g transform="matrix(1,0,0,1,-3.1151183800621993,0)"><svg viewBox="0 0 321 360" data-background-color="#ffffff" preserveAspectRatio="xMidYMid meet" height="2242" width="2000" xmlns="http://www.w3.org/2000/svg" xmlns:xlink="http://www.w3.org/1999/xlink"><g id="tight-bounds" transform="matrix(1,0,0,1,0.5000234999999975,0)"><svg viewBox="0 0 320 360" height="360" width="320"><g><svg></svg></g><g><svg viewBox="0 0 320 360" height="360" width="320"><g><path transform="translate(-74.99272,-51.79039) scale(4.65793,4.65793)" d="M20.6 59.9l0.8 1-0.4-1.3c-0.1-0.6-0.8 0.1-0.4 0.3M21.5 59.3c0.3 0.5 0.6 1 0.6 1.5 0 0.7 0.6 1 1.1 1.2-0.7-0.8-1.1-3-1.7-2.7M59.9 16.9c1.7 0 3.3-0.2 5.1 0.2 4.4 1.1 8.1 3.3 10.6 6.4l7 11.2c0.3 2.8 0.9 5.9 0.8 9.3 0.7 0 0.6-1 1.4-1.2-0.8 2-1.2 4.5-1.4 7.4-0.5-1.6 0-4 0.1-5.3-0.7 1.1-1.1 0.3-1.1-0.2 0.1-0.8-0.3-0.7-0.6-1-1.1-1-1.8-2.1-2.6-3.8 0.5-1.3 0.6-3.2-1-4.2-0.5-0.3-1.1-0.8-1.4-1.6-0.4-1.1-1.1-2.4-0.9-4.1 0.1-0.5-1.5 1.1-2.4 0.4-3.9-2.7-7.8-5.8-12.5-8.4-2.5 0-4.3-0.9-5.2-2-0.8-1-0.2-2.3 1-2.4 0.7 0 1.5-0.2 2.1 0.2 0.1-0.4 0.5-0.9 1-0.9M50 14.6l0.2 0.1c1 0.2 1.5 1.6 2.6 1.1 0 0.7 0.1 1.4-0.1 1.9-0.3 0.8-1.2 0.8-1.9 0.8-6.7-0.4-10.6 2.4-14.7 4.8-1.1 0.7-2.3 1.2-3.2 2.1-4.3 4-9 7.7-10.1 15.1l-0.9 8.2c-0.1 0.9-1.1 1.8-0.9 2.9l0.7 4.9c-0.7-0.7-1.1 0.2-0.9 0.6 0.1 0.3 0.5 1.3 1.1 0.4 0.8 1.5 1.6 4.4 2.7 5.7 3.4 4 7.8 7.6 11.4 11.2 0.9-0.2 1.6-0.2 1.8-0.8 0.3 0.6-0.3 1.2-0.8 1.3 1.6 1 3.4 1.9 5.8 2.1 3.1 0.2 6 0.7 8.7 1.4 1.4-0.4 2.8-0.6 4.3-0.7 0.5 0 0.8-0.8 1.4-1l0.1-1c0.6 0.9 0.5-0.3 0.1-0.9 0.7 0.6 0.9 1.1 1.2 1.5 0-0.3 0.8-1.4 0.8-0.1l0.2-1.3c0.3-0.2 0.4 1.1 0.7 0.2 0.3-0.9 0.9-0.2 1.5-0.5-0.2 0.4-0.1 1.2 0.6 0.7l0.8-0.7c0.5 1.2 1.3 0.7 1.7 0.5 4.4-2.8 8.8-6.1 13-9.4l-0.1 1.3 0.5-1.6c0.5 0.5 0.9 0.1 1.1-0.2 0.6-1 1.4-2 2.7-2.9-1.6 4.3-3.5 7.7-5.9 10.5l-1 1.2c0 0.7-0.2 1.6-1 1.7-0.4 0.1-1.2-0.2-1.8 0.4-0.3 0.4 0.7 1.2-0.1 0.6-0.7-0.5-1.4 0-2.2 0.2-0.6 0.2 0.4 0.8 0.6 1.2 0.2 0.4 0.4 0.8 0.3 1.3l-1.1-1.2c-1.3 0.7-2.1 2-3.2 3-0.5 0.4-0.3 1.1-0.3 1.7-0.7 0-1.5-0.2-1.9 0.2-0.3 0.4-0.2 1-0.2 1.6-1-0.1-1.1-1.6-2-1.3-0.9 0.2-1.9 0.3-2.7 0.8 0.6 1.2-1 0.5-0.8 0.7-1.5-0.9-2.8-1.6-4.4-1-3.4-1.1-7.6-0.6-10.7-0.2 0-0.5 0.1-1-0.1-1.1-0.2 0.5-0.8 0.3-0.7 0.3-1.9-1.3-3.8-2.1-5.8-3.2-1.8 0.2-3.5-0.7-4-1.2-1.4-1.3-3-0.6-4.3-0.9-2.8-0.7-3.8-3.6-4.1-5.6-0.2-1-1-1.4-1.3-1.3-1.3-4.2-3.3-8-4.9-11.9-0.4-1-0.3-2-0.3-3.1 0.5 0.2 1 0.1 0.9-0.6-0.5-3.3-1.7-5.8-3-8.2 0.7-3.4 0.8-7.4 2.4-10.4 1.4-2.7 4-4.1 5.8-6.4 0.6-0.8 0.6-1.9 1.2-2.6 2-2 4-4.1 6.2-5.9 1-0.8 2.2 0 3.7-0.3 0.5-1.8 2.5-3.4 4.4-2.9 0.8 0.2 2.4-1.9 2.9-2.1 0.8-0.3 0.4 0.8 0.4 1.5 1.9-1.5 4.5-2.3 6.9-3.2" fill="#000000" fill-rule="nonzero" stroke="none" stroke-width="1" stroke-linecap="butt" stroke-linejoin="miter" stroke-miterlimit="10" stroke-dasharray="" stroke-dashoffset="0" font-family="none" font-weight="none" font-size="none" text-anchor="none" style="mix-blend-mode: normal" data-fill-palette-color="tertiary"></path></g><g transform="matrix(1,0,0,1,79.97490836034174,90)"><svg viewBox="0 0 160.0501832793165 180" height="180" width="160.0501832793165"><g><svg viewBox="0 0 160.0501832793165 180" height="180" width="160.0501832793165"><g><svg viewBox="0 0 192.00000000000003 215.93227381493563" height="180" width="160.0501832793165"><g transform="matrix(1,0,0,1,0,130.97193579851037)"><svg viewBox="0 0 192.00000000000003 84.96033801642525" height="84.96033801642525" width="192.00000000000003"><g id="textblocktransform"><svg viewBox="0 0 192.00000000000003 84.96033801642525" height="84.96033801642525" width="192.00000000000003" id="textblock"><g><svg viewBox="0 0 192.00000000000003 57.42535734174866" height="57.42535734174866" width="192.00000000000003"><g transform="matrix(1,0,0,1,0,0)"><svg width="192.00000000000003" viewBox="0.35 -40.35 168.32500000000002 50.35" height="57.42535734174866" data-palette-color="#1c1c1c"><path d="M10.4 0L6.45 0 6.45-36.43 0.35-36.43 0.35-40 16.48-40 16.48-36.43 10.4-36.43 10.4 0ZM22.85 0.33L22.85 0.33Q20.07 0.33 18.55-1.14 17.02-2.6 16.8-5.58L16.8-5.58Q16.77-6.2 16.75-6.81 16.72-7.43 16.75-8.05L16.75-8.05Q16.85-9.85 17.41-11.28 17.97-12.7 19.22-13.88 20.47-15.05 22.67-16.1L22.67-16.1Q23.85-16.68 25.2-17.25 26.55-17.82 27.85-18.25L27.85-18.25 27.85-24.2Q27.85-25.85 27.16-26.58 26.47-27.3 24.7-27.3L24.7-27.3Q23.2-27.3 22.3-26.68 21.4-26.05 21.32-24.45L21.32-24.45Q21.27-23.7 21.26-22.74 21.25-21.78 21.27-20.91 21.3-20.05 21.32-19.58L21.32-19.58 17.42-19.58Q17.4-20.65 17.37-21.78 17.35-22.9 17.37-23.95L17.37-23.95Q17.47-26.15 18.22-27.58 18.97-29 20.59-29.69 22.2-30.38 24.87-30.38L24.87-30.38Q27.55-30.38 29.05-29.66 30.55-28.95 31.16-27.4 31.77-25.85 31.77-23.4L31.77-23.4 31.75 0 27.77 0 27.77-2.78 27.22-2.78Q26.57-1.33 25.69-0.5 24.8 0.33 22.85 0.33ZM23.9-2.68L23.9-2.68Q25.32-2.68 26.3-3.4 27.27-4.13 27.8-5.5L27.8-5.5 27.85-14.88Q26.85-14.58 25.8-14.1 24.75-13.63 23.45-12.83L23.45-12.83Q21.82-11.9 21.31-10.74 20.8-9.58 20.75-8.05L20.75-8.05Q20.72-7.38 20.73-6.85 20.75-6.33 20.77-5.8L20.77-5.8Q20.9-4.35 21.71-3.51 22.52-2.68 23.9-2.68ZM41.15 0L37.17 0 37.17-40 41.15-40 41.15 0ZM50.59 0L46.69 0 46.69-40 50.49-40 50.49-32.25 50.12-16.8 50.99-16.8 53.92-24.28 56.54-30 60.72-30 54.87-17.75 62.04 0 57.84 0 52.44-13.55 50.59-10.2 50.59 0ZM82.31 0.35L82.31 0.35Q78.29 0.35 76.5-1.26 74.71-2.88 74.59-6.58L74.59-6.58Q74.56-8 74.55-9.24 74.54-10.48 74.56-11.74 74.59-13 74.64-14.48L74.64-14.48 78.46-14.48Q78.36-12.25 78.35-10.21 78.34-8.18 78.46-6.08L78.46-6.08Q78.54-4.4 79.4-3.74 80.26-3.08 82.31-3.08L82.31-3.08Q84.24-3.08 85.08-3.74 85.91-4.4 86.01-6.08L86.01-6.08Q86.11-7.15 86.13-8.41 86.14-9.68 86.1-10.93 86.06-12.18 86.01-13.28L86.01-13.28Q85.96-15.28 85.21-16.28 84.46-17.28 82.76-17.7L82.76-17.7 79.99-18.38Q77.94-18.88 76.76-19.84 75.59-20.8 75.09-22.43 74.59-24.05 74.51-26.55L74.51-26.55Q74.49-28.18 74.5-29.94 74.51-31.7 74.54-33.5L74.54-33.5Q74.61-35.98 75.41-37.48 76.21-38.98 77.9-39.66 79.59-40.35 82.31-40.35L82.31-40.35Q86.21-40.35 87.96-38.75 89.71-37.15 89.84-33.45L89.84-33.45Q89.89-31.9 89.86-30.04 89.84-28.18 89.79-26.13L89.79-26.13 85.94-26.13Q86.01-28.43 86.03-30.3 86.04-32.18 85.96-33.95L85.96-33.95Q85.89-35.63 85.06-36.29 84.24-36.95 82.26-36.95L82.26-36.95Q80.29-36.95 79.45-36.29 78.61-35.63 78.51-33.95L78.51-33.95Q78.41-32.05 78.41-30.28 78.41-28.5 78.51-26.55L78.51-26.55Q78.56-24.4 79.11-23.39 79.66-22.38 81.01-22.05L81.01-22.05 83.64-21.45Q85.99-20.9 87.35-19.93 88.71-18.95 89.33-17.32 89.94-15.7 90.01-13.28L90.01-13.28Q90.06-12.23 90.06-11.06 90.06-9.9 90.04-8.75 90.01-7.6 89.99-6.58L89.99-6.58Q89.84-2.88 88.08-1.26 86.31 0.35 82.31 0.35ZM99.11 10L95.06 10 95.06-30 99.11-30 99.11-27.25 99.81-27.25Q100.66-28.83 101.74-29.6 102.81-30.38 104.86-30.38L104.86-30.38Q107.56-30.38 108.94-28.9 110.31-27.43 110.41-24.05L110.41-24.05Q110.46-22.53 110.5-20.11 110.54-17.7 110.54-15.03 110.54-12.35 110.5-9.94 110.46-7.53 110.41-5.95L110.41-5.95Q110.31-2.6 108.85-1.11 107.39 0.38 104.69 0.38L104.69 0.38Q102.99 0.38 101.86-0.36 100.74-1.1 99.81-2.78L99.81-2.78 99.11-2.78 99.11 10ZM103.34-2.68L103.34-2.68Q104.84-2.68 105.59-3.38 106.34-4.08 106.39-5.68L106.39-5.68Q106.51-8.78 106.55-11.21 106.59-13.65 106.57-15.76 106.56-17.88 106.51-19.96 106.46-22.05 106.39-24.43L106.39-24.43Q106.34-25.98 105.69-26.66 105.04-27.35 103.51-27.35L103.51-27.35Q101.91-27.35 100.79-26.63 99.66-25.9 99.11-24.43L99.11-24.43 99.11-5.6Q99.71-3.98 100.71-3.33 101.71-2.68 103.34-2.68ZM120.66 0.33L120.66 0.33Q117.88 0.33 116.36-1.14 114.83-2.6 114.61-5.58L114.61-5.58Q114.58-6.2 114.56-6.81 114.53-7.43 114.56-8.05L114.56-8.05Q114.66-9.85 115.22-11.28 115.78-12.7 117.03-13.88 118.28-15.05 120.48-16.1L120.48-16.1Q121.66-16.68 123.01-17.25 124.36-17.82 125.66-18.25L125.66-18.25 125.66-24.2Q125.66-25.85 124.97-26.58 124.28-27.3 122.51-27.3L122.51-27.3Q121.01-27.3 120.11-26.68 119.21-26.05 119.13-24.45L119.13-24.45Q119.08-23.7 119.07-22.74 119.06-21.78 119.08-20.91 119.11-20.05 119.13-19.58L119.13-19.58 115.23-19.58Q115.21-20.65 115.18-21.78 115.16-22.9 115.18-23.95L115.18-23.95Q115.28-26.15 116.03-27.58 116.78-29 118.4-29.69 120.01-30.38 122.68-30.38L122.68-30.38Q125.36-30.38 126.86-29.66 128.36-28.95 128.97-27.4 129.58-25.85 129.58-23.4L129.58-23.4 129.56 0 125.58 0 125.58-2.78 125.03-2.78Q124.38-1.33 123.5-0.5 122.61 0.33 120.66 0.33ZM121.71-2.68L121.71-2.68Q123.13-2.68 124.11-3.4 125.08-4.13 125.61-5.5L125.61-5.5 125.66-14.88Q124.66-14.58 123.61-14.1 122.56-13.63 121.26-12.83L121.26-12.83Q119.63-11.9 119.12-10.74 118.61-9.58 118.56-8.05L118.56-8.05Q118.53-7.38 118.55-6.85 118.56-6.33 118.58-5.8L118.58-5.8Q118.71-4.35 119.52-3.51 120.33-2.68 121.71-2.68ZM149.31-19.58L145.38-19.58Q145.43-20.4 145.43-21.23 145.43-22.05 145.43-22.85 145.43-23.65 145.41-24.33L145.41-24.33Q145.38-25.98 144.61-26.63 143.83-27.28 142.01-27.28L142.01-27.28Q140.16-27.28 139.39-26.61 138.63-25.95 138.58-24.3L138.58-24.3Q138.51-21.98 138.48-19.7 138.46-17.43 138.46-15.13 138.46-12.83 138.48-10.5 138.51-8.18 138.58-5.75L138.58-5.75Q138.63-4.05 139.44-3.39 140.26-2.73 142.03-2.73L142.03-2.73Q143.86-2.73 144.62-3.4 145.38-4.08 145.41-5.78L145.41-5.78Q145.43-6.83 145.43-7.93 145.43-9.03 145.38-10.5L145.38-10.5 149.31-10.5Q149.38-9.6 149.39-8.31 149.41-7.03 149.36-6.15L149.36-6.15Q149.23-2.68 147.54-1.15 145.86 0.38 142.03 0.38L142.03 0.38Q138.11 0.38 136.41-1.16 134.71-2.7 134.56-6.15L134.56-6.15Q134.51-7.95 134.47-10.19 134.43-12.43 134.43-14.83 134.43-17.23 134.46-19.54 134.48-21.85 134.56-23.8L134.56-23.8Q134.73-27.33 136.46-28.85 138.18-30.38 142.01-30.38L142.01-30.38Q145.86-30.38 147.57-28.88 149.28-27.38 149.36-23.93L149.36-23.93Q149.41-22.9 149.39-21.73 149.38-20.55 149.31-19.58L149.31-19.58ZM161.35 0.38L161.35 0.38Q157.4 0.38 155.69-1.18 153.98-2.73 153.8-6.18L153.8-6.18Q153.75-7.98 153.72-10.21 153.68-12.45 153.68-14.84 153.68-17.23 153.7-19.53 153.73-21.83 153.8-23.78L153.8-23.78Q153.98-27.33 155.74-28.85 157.5-30.38 161.3-30.38L161.3-30.38Q165.13-30.38 166.8-28.83 168.48-27.28 168.63-23.95L168.63-23.95Q168.65-23.38 168.67-21.76 168.68-20.15 168.67-18.11 168.65-16.07 168.58-14.23L168.58-14.23 157.7-14.23Q157.7-12.15 157.74-10.04 157.78-7.93 157.8-5.75L157.8-5.75Q157.85-4.05 158.68-3.4 159.5-2.75 161.28-2.75L161.28-2.75Q163.05-2.75 163.82-3.4 164.58-4.05 164.65-5.75L164.65-5.75Q164.7-6.5 164.69-7.8 164.68-9.1 164.6-10.5L164.6-10.5 168.58-10.5Q168.63-9.65 168.65-8.31 168.68-6.98 168.63-6.18L168.63-6.18Q168.45-2.68 166.82-1.15 165.18 0.38 161.35 0.38ZM157.7-17.28L157.7-17.28 164.7-17.28Q164.73-18.68 164.74-20.11 164.75-21.55 164.73-22.69 164.7-23.83 164.65-24.28L164.65-24.28Q164.55-25.98 163.75-26.64 162.95-27.3 161.3-27.3L161.3-27.3Q159.4-27.3 158.63-26.55 157.85-25.8 157.8-24.28L157.8-24.28Q157.78-22.58 157.74-20.81 157.7-19.05 157.7-17.28Z" opacity="1" transform="matrix(1,0,0,1,0,0)" fill="#000000" class="wordmark-text-0" data-fill-palette-color="primary" id="text-0"></path></svg></g></svg></g><g transform="matrix(1,0,0,1,0,70.98210600155932)"><svg viewBox="0 0 192.00000000000003 13.978232014865945" height="13.978232014865945" width="192.00000000000003"><g transform="matrix(1,0,0,1,0,0)"><svg width="192.00000000000003" viewBox="1.5 -42.3 753.33 54.85" height="13.978232014865945" data-palette-color="#1c1c1c"><path d="M34.15-37.9L20.2-14.65 20.2 0 15.4 0 15.4-14.65 1.5-37.9 6.5-37.9 17.8-18.75 29.15-37.9 34.15-37.9ZM52.1 0.85Q47.7 0.85 44.62-1.07 41.55-3 40-6.33 38.45-9.65 38.45-13.8L38.45-13.8Q38.45-17.95 40-21.28 41.55-24.6 44.62-26.53 47.7-28.45 52.1-28.45L52.1-28.45Q56.5-28.45 59.57-26.53 62.65-24.6 64.17-21.28 65.7-17.95 65.7-13.8L65.7-13.8Q65.7-9.65 64.17-6.33 62.65-3 59.57-1.07 56.5 0.85 52.1 0.85L52.1 0.85ZM52.1-3.4Q56.25-3.4 58.52-6.3 60.8-9.2 60.8-13.8L60.8-13.8Q60.8-18.4 58.52-21.28 56.25-24.15 52.1-24.15L52.1-24.15Q47.95-24.15 45.65-21.28 43.35-18.4 43.35-13.8L43.35-13.8Q43.35-9.2 45.65-6.3 47.95-3.4 52.1-3.4L52.1-3.4ZM91.25-27.65L95.95-27.65 95.95 0 91.25 0 91.25-2.95Q87.15 0.6 82.8 0.6L82.8 0.6Q77.7 0.6 75.22-2.1 72.75-4.8 72.75-10.95L72.75-10.95 72.75-27.65 77.45-27.65 77.45-10.95Q77.45-7.05 78.77-5.4 80.09-3.75 83.45-3.75L83.45-3.75Q87.34-3.75 91.25-7.15L91.25-7.15 91.25-27.65ZM117.99-28.25L119.14-28.25 119.14-23.85 117.99-23.85Q113.69-23.85 109.64-20.4L109.64-20.4 109.64 0 104.94 0 104.94-27.65 109.64-27.65 109.64-24.55Q113.74-28.25 117.99-28.25L117.99-28.25ZM166.99-37.9L172.34-37.9 172.34 0 167.49 0 167.49-30.55 155.89-14.4 153.34-14.4 141.84-30.55 141.84 0 136.99 0 136.99-37.9 142.29-37.9 154.64-20.6 166.99-37.9ZM185.39-13.45Q185.49-8.85 187.69-6.1 189.89-3.35 194.69-3.35L194.69-3.35Q198.34-3.35 202.69-5.4L202.69-5.4 204.14-1.5Q199.59 0.85 194.29 0.85L194.29 0.85Q189.89 0.85 186.79-1 183.69-2.85 182.09-6.15 180.49-9.45 180.49-13.85L180.49-13.85Q180.49-18.5 182.16-21.78 183.84-25.05 186.69-26.75 189.54-28.45 193.09-28.45L193.09-28.45Q198.54-28.45 201.64-25.05 204.74-21.65 204.74-15.3L204.74-15.3 204.74-13.45 185.39-13.45ZM193.09-24.25Q186.89-24.25 185.69-17.4L185.69-17.4 199.79-17.4Q199.54-20.9 197.89-22.58 196.24-24.25 193.09-24.25L193.09-24.25ZM214.63-13.45Q214.73-8.85 216.93-6.1 219.13-3.35 223.93-3.35L223.93-3.35Q227.58-3.35 231.93-5.4L231.93-5.4 233.38-1.5Q228.83 0.85 223.53 0.85L223.53 0.85Q219.13 0.85 216.03-1 212.93-2.85 211.33-6.15 209.73-9.45 209.73-13.85L209.73-13.85Q209.73-18.5 211.41-21.78 213.08-25.05 215.93-26.75 218.78-28.45 222.33-28.45L222.33-28.45Q227.78-28.45 230.88-25.05 233.98-21.65 233.98-15.3L233.98-15.3 233.98-13.45 214.63-13.45ZM222.33-24.25Q216.13-24.25 214.93-17.4L214.93-17.4 229.03-17.4Q228.78-20.9 227.13-22.58 225.48-24.25 222.33-24.25L222.33-24.25ZM252.73-22.95L246.33-22.95 246.33-7.15Q246.33-5.15 246.96-4.42 247.58-3.7 249.28-3.7L249.28-3.7Q250.78-3.7 252.48-4.1L252.48-4.1 252.48 0.15Q250.23 0.65 248.48 0.65L248.48 0.65Q244.68 0.65 243.16-0.9 241.63-2.45 241.63-6.1L241.63-6.1 241.63-22.95 238.03-22.95 238.03-27.3 241.63-27.3 241.63-36.8 246.33-36.8 246.33-27.3 252.73-27.3 252.73-22.95ZM259.33-32.85L259.33-40.4 264.03-40.4 264.03-32.85 259.33-32.85ZM259.33 0L259.33-27.65 264.03-27.65 264.03 0 259.33 0ZM286.18-28.25Q291.28-28.25 293.75-25.55 296.23-22.85 296.23-16.65L296.23-16.65 296.23 0 291.53 0 291.53-16.65Q291.53-20.55 290.2-22.2 288.88-23.85 285.53-23.85L285.53-23.85Q281.63-23.85 277.73-20.45L277.73-20.45 277.73 0 273.03 0 273.03-27.65 277.73-27.65 277.73-24.7Q281.83-28.25 286.18-28.25L286.18-28.25ZM323.47-27.65L328.17-27.65 328.17 0.55Q328.17 6.2 325.55 9.38 322.92 12.55 316.37 12.55L316.37 12.55Q313.17 12.55 310.85 12.15 308.52 11.75 306.07 10.75L306.07 10.75 306.07 6.1Q308.37 7.15 310.67 7.68 312.97 8.2 314.92 8.2L314.92 8.2Q318.52 8.2 320.37 7.28 322.22 6.35 322.85 4.63 323.47 2.9 323.47 0.05L323.47 0.05 323.47-3.5Q319.52-0.15 315.47-0.15L315.47-0.15Q309.87-0.15 306.55-3.8 303.22-7.45 303.22-14.3L303.22-14.3Q303.22-21.2 306.57-24.83 309.92-28.45 315.47-28.45L315.47-28.45Q319.47-28.45 323.47-25.05L323.47-25.05 323.47-27.65ZM316.12-4.5Q319.77-4.5 323.47-7.6L323.47-7.6 323.47-20.95Q319.87-24.05 316.12-24.05L316.12-24.05Q312.22-24.05 310.15-21.48 308.07-18.9 308.07-14.3L308.07-14.3Q308.07-9.55 310.12-7.03 312.17-4.5 316.12-4.5L316.12-4.5ZM344.82 0.85Q341.77 0.85 339.42 0.35 337.07-0.15 334.52-1.35L334.52-1.35 334.52-6Q339.27-3.35 344.82-3.35L344.82-3.35Q347.62-3.35 348.85-4.48 350.07-5.6 350.07-7.45L350.07-7.45Q350.07-9.25 349.1-10.1 348.12-10.95 345.92-11.55L345.92-11.55 342.67-12.35Q339.17-13.2 337.17-15.05 335.17-16.9 335.17-20.5L335.17-20.5Q335.17-24.25 337.62-26.35 340.07-28.45 344.82-28.45L344.82-28.45Q347.27-28.45 349.37-27.98 351.47-27.5 353.57-26.65L353.57-26.65 353.57-22.25Q351.52-23.2 349.52-23.73 347.52-24.25 344.97-24.25L344.97-24.25Q342.32-24.25 341.15-23.23 339.97-22.2 339.97-20.65L339.97-20.65Q339.97-18.95 341-18.07 342.02-17.2 343.97-16.7L343.97-16.7 347.27-15.95Q349.77-15.35 351.4-14.45 353.02-13.55 353.94-11.93 354.87-10.3 354.87-7.6L354.87-7.6Q354.87-3.55 352.15-1.35 349.42 0.85 344.82 0.85L344.82 0.85ZM360.47 7.55L363.47-8.05 368.47-8.05 364.82 7.55 360.47 7.55ZM430.81-37.9L435.71-37.9 424.81 0.45 419.41 0.45 410.26-30.7 401.16 0.45 395.76 0.45 384.81-37.9 389.71-37.9 398.51-6.1 407.51-37.9 413.01-37.9 422.06-6.05 430.81-37.9ZM442.21-32.85L442.21-40.4 446.91-40.4 446.91-32.85 442.21-32.85ZM442.21 0L442.21-27.65 446.91-27.65 446.91 0 442.21 0ZM467.96-22.95L461.56-22.95 461.56-7.15Q461.56-5.15 462.18-4.42 462.81-3.7 464.51-3.7L464.51-3.7Q466.01-3.7 467.71-4.1L467.71-4.1 467.71 0.15Q465.46 0.65 463.71 0.65L463.71 0.65Q459.91 0.65 458.38-0.9 456.86-2.45 456.86-6.1L456.86-6.1 456.86-22.95 453.26-22.95 453.26-27.3 456.86-27.3 456.86-36.8 461.56-36.8 461.56-27.3 467.96-27.3 467.96-22.95ZM487.7-28.25Q492.8-28.25 495.28-25.55 497.75-22.85 497.75-16.65L497.75-16.65 497.75 0 493.05 0 493.05-16.65Q493.05-20.55 491.73-22.2 490.4-23.85 487.05-23.85L487.05-23.85Q483.15-23.85 479.25-20.45L479.25-20.45 479.25 0 474.55 0 474.55-42.3 479.25-42.3 479.25-24.7Q483.3-28.25 487.7-28.25L487.7-28.25ZM518.45 0.85Q514.05 0.85 510.98-1.07 507.9-3 506.35-6.33 504.8-9.65 504.8-13.8L504.8-13.8Q504.8-17.95 506.35-21.28 507.9-24.6 510.98-26.53 514.05-28.45 518.45-28.45L518.45-28.45Q522.85-28.45 525.93-26.53 529-24.6 530.53-21.28 532.05-17.95 532.05-13.8L532.05-13.8Q532.05-9.65 530.53-6.33 529-3 525.93-1.07 522.85 0.85 518.45 0.85L518.45 0.85ZM518.45-3.4Q522.6-3.4 524.88-6.3 527.15-9.2 527.15-13.8L527.15-13.8Q527.15-18.4 524.88-21.28 522.6-24.15 518.45-24.15L518.45-24.15Q514.3-24.15 512-21.28 509.7-18.4 509.7-13.8L509.7-13.8Q509.7-9.2 512-6.3 514.3-3.4 518.45-3.4L518.45-3.4ZM557.6-27.65L562.3-27.65 562.3 0 557.6 0 557.6-2.95Q553.5 0.6 549.15 0.6L549.15 0.6Q544.05 0.6 541.57-2.1 539.1-4.8 539.1-10.95L539.1-10.95 539.1-27.65 543.8-27.65 543.8-10.95Q543.8-7.05 545.12-5.4 546.45-3.75 549.8-3.75L549.8-3.75Q553.7-3.75 557.6-7.15L557.6-7.15 557.6-27.65ZM583.35-22.95L576.95-22.95 576.95-7.15Q576.95-5.15 577.57-4.42 578.2-3.7 579.9-3.7L579.9-3.7Q581.4-3.7 583.1-4.1L583.1-4.1 583.1 0.15Q580.85 0.65 579.1 0.65L579.1 0.65Q575.3 0.65 573.77-0.9 572.25-2.45 572.25-6.1L572.25-6.1 572.25-22.95 568.65-22.95 568.65-27.3 572.25-27.3 572.25-36.8 576.95-36.8 576.95-27.3 583.35-27.3 583.35-22.95ZM606.64-4.35L622.49-4.35 622.49 0 601.79 0 601.79-37.9 606.64-37.9 606.64-4.35ZM628.99-32.85L628.99-40.4 633.69-40.4 633.69-32.85 628.99-32.85ZM628.99 0L628.99-27.65 633.69-27.65 633.69 0 628.99 0ZM673.79-28.25Q678.84-28.25 681.26-25.55 683.69-22.85 683.69-16.65L683.69-16.65 683.69 0 678.99 0 678.99-16.65Q678.99-20.6 677.71-22.23 676.44-23.85 673.14-23.85L673.14-23.85Q669.24-23.85 665.34-20.1L665.34-20.1Q665.54-18.7 665.54-16.65L665.54-16.65 665.54 0 660.84 0 660.84-16.65Q660.84-20.6 659.56-22.23 658.29-23.85 654.99-23.85L654.99-23.85Q651.19-23.85 647.39-20.45L647.39-20.45 647.39 0 642.69 0 642.69-27.65 647.39-27.65 647.39-24.7Q651.44-28.25 655.64-28.25L655.64-28.25Q658.99-28.25 661.14-27.13 663.29-26 664.39-23.55L664.39-23.55Q668.94-28.25 673.79-28.25L673.79-28.25ZM691.58-32.85L691.58-40.4 696.28-40.4 696.28-32.85 691.58-32.85ZM691.58 0L691.58-27.65 696.28-27.65 696.28 0 691.58 0ZM717.33-22.95L710.93-22.95 710.93-7.15Q710.93-5.15 711.56-4.42 712.18-3.7 713.88-3.7L713.88-3.7Q715.38-3.7 717.08-4.1L717.08-4.1 717.08 0.15Q714.83 0.65 713.08 0.65L713.08 0.65Q709.28 0.65 707.76-0.9 706.23-2.45 706.23-6.1L706.23-6.1 706.23-22.95 702.63-22.95 702.63-27.3 706.23-27.3 706.23-36.8 710.93-36.8 710.93-27.3 717.33-27.3 717.33-22.95ZM732.33 0.85Q729.28 0.85 726.93 0.35 724.58-0.15 722.03-1.35L722.03-1.35 722.03-6Q726.78-3.35 732.33-3.35L732.33-3.35Q735.13-3.35 736.35-4.48 737.58-5.6 737.58-7.45L737.58-7.45Q737.58-9.25 736.6-10.1 735.63-10.95 733.43-11.55L733.43-11.55 730.18-12.35Q726.68-13.2 724.68-15.05 722.68-16.9 722.68-20.5L722.68-20.5Q722.68-24.25 725.13-26.35 727.58-28.45 732.33-28.45L732.33-28.45Q734.78-28.45 736.88-27.98 738.98-27.5 741.08-26.65L741.08-26.65 741.08-22.25Q739.03-23.2 737.03-23.73 735.03-24.25 732.48-24.25L732.48-24.25Q729.83-24.25 728.65-23.23 727.48-22.2 727.48-20.65L727.48-20.65Q727.48-18.95 728.5-18.07 729.53-17.2 731.48-16.7L731.48-16.7 734.78-15.95Q737.28-15.35 738.9-14.45 740.53-13.55 741.45-11.93 742.38-10.3 742.38-7.6L742.38-7.6Q742.38-3.55 739.65-1.35 736.93 0.85 732.33 0.85L732.33 0.85ZM749.63 0L749.63-8.05 754.83-8.05 754.83 0 749.63 0Z" opacity="1" transform="matrix(1,0,0,1,0,0)" fill="#000000" class="slogan-text-1" data-fill-palette-color="secondary" id="text-1"></path></svg></g></svg></g></svg></g></svg></g><g transform="matrix(1,0,0,1,46.755562610390385,0)"><svg viewBox="0 0 98.48887477921926 117.41518713869971" height="117.41518713869971" width="98.48887477921926"><g><svg xmlns="http://www.w3.org/2000/svg" xmlns:xlink="http://www.w3.org/1999/xlink" version="1.1" x="0" y="0" viewBox="27.508 27.907000126966118 40.18900000000001 47.911999873033885" enable-background="new 0 0 100 100" xml:space="preserve" height="117.41518713869971" width="98.48887477921926" class="icon-icon-0" data-fill-palette-color="accent" id="icon-0"><path d="M54.666 49.756C47.48 49.756 41.634 55.602 41.634 62.788S47.481 75.819 54.666 75.819 67.697 69.973 67.697 62.788 61.852 49.756 54.666 49.756M54.666 72.819C49.134 72.819 44.634 68.319 44.634 62.788S49.134 52.756 54.666 52.756C60.197 52.756 64.697 57.256 64.697 62.788 64.697 68.319 60.197 72.819 54.666 72.819" fill="#000000" data-fill-palette-color="accent"></path><path d="M34.375 30.514C30.589 30.514 27.508 33.595 27.508 37.381S30.589 44.248 34.375 44.248 41.241 41.167 41.241 37.381 38.161 30.514 34.375 30.514M34.375 41.248C32.242 41.248 30.508 39.514 30.508 37.381S32.242 33.514 34.375 33.514 38.241 35.248 38.241 37.381 36.507 41.248 34.375 41.248" fill="#000000" data-fill-palette-color="accent"></path><circle cx="33.587" cy="61.151" r="5.4" fill="#000000" data-fill-palette-color="accent"></circle><circle cx="42.15" cy="46.04" r="2.4" fill="#000000" data-fill-palette-color="accent"></circle><circle cx="50.465" cy="31.021" r="3.1" fill="#000000" data-fill-palette-color="accent"></circle><circle cx="61.841" cy="41.909" r="4.5" fill="#000000" data-fill-palette-color="accent"></circle></svg></g></svg></g><g></g></svg></g></svg></g></svg></g></svg></g><defs></defs></svg><rect width="320" height="360" fill="none" stroke="none" visibility="hidden"></rect></g></svg></g></svg>