<svg xmlns="http://www.w3.org/2000/svg" version="1.1" xmlns:xlink="http://www.w3.org/1999/xlink" xmlns:svgjs="http://svgjs.dev/svgjs" width="2000" height="843" viewBox="0 0 2000 843"><g transform="matrix(1,0,0,1,-1.2121212121212466,-2.483841323403624)"><svg viewBox="0 0 396 167" data-background-color="#ffffff" preserveAspectRatio="xMidYMid meet" height="843" width="2000" xmlns="http://www.w3.org/2000/svg" xmlns:xlink="http://www.w3.org/1999/xlink"><g id="tight-bounds" transform="matrix(1,0,0,1,0.2400000000000091,0.49205397509894055)"><svg viewBox="0 0 395.52 166.01589204980212" height="166.01589204980212" width="395.52"><g><svg viewBox="0 0 395.52 166.01589204980212" height="166.01589204980212" width="395.52"><g><svg viewBox="0 0 395.52 166.01589204980212" height="166.01589204980212" width="395.52"><g><svg viewBox="0 0 694.2450770249013 291.40300304276036" height="166.01589204980212" width="395.52"><g transform="matrix(1,0,0,1,298.72507702490134,30.709471359692017)"><svg viewBox="0 0 395.52 229.98406032337633" height="229.98406032337633" width="395.52"><g id="textblocktransform"><svg viewBox="0 0 395.52 229.98406032337633" height="229.98406032337633" width="395.52" id="textblock"><g><svg viewBox="0 0 395.52 229.98406032337633" height="229.98406032337633" width="395.52"><g transform="matrix(1,0,0,1,0,0)"><svg width="395.52" viewBox="-0.9 -32.9 63.58415040518799 36.971875" height="229.98406032337633" data-palette-color="url(#1d4234dd-f776-45db-ba79-950d09d738fa)"></svg></g></svg></g></svg></g></svg></g><g><svg viewBox="0 0 244.43135999999996 291.40300304276036" height="291.40300304276036" width="244.43135999999996"><g><svg xmlns="http://www.w3.org/2000/svg" xmlns:xlink="http://www.w3.org/1999/xlink" version="1.1" x="0" y="0" viewBox="27.508 27.907000126966118 40.18900000000001 47.911999873033885" enable-background="new 0 0 100 100" xml:space="preserve" height="291.40300304276036" width="244.43135999999996" class="icon-icon-0" data-fill-palette-color="accent" id="icon-0"></svg></g></svg></g></svg></g></svg></g></svg></g><defs></defs><mask id="b6ccf57f-eb58-42dc-b87e-cda7d4b73fba"><g id="SvgjsG1361"><svg viewBox="0 0 395.52 166.01589204980212" height="166.01589204980212" width="395.52"><g><svg viewBox="0 0 395.52 166.01589204980212" height="166.01589204980212" width="395.52"><g><svg viewBox="0 0 395.52 166.01589204980212" height="166.01589204980212" width="395.52"><g><svg viewBox="0 0 694.2450770249013 291.40300304276036" height="166.01589204980212" width="395.52"><g transform="matrix(1,0,0,1,298.72507702490134,30.709471359692017)"><svg viewBox="0 0 395.52 229.98406032337633" height="229.98406032337633" width="395.52"><g id="SvgjsG1360"><svg viewBox="0 0 395.52 229.98406032337633" height="229.98406032337633" width="395.52" id="SvgjsSvg1359"><g><svg viewBox="0 0 395.52 229.98406032337633" height="229.98406032337633" width="395.52"><g transform="matrix(1,0,0,1,0,0)"><svg width="395.52" viewBox="-0.9 -32.9 63.58415040518799 36.971875" height="229.98406032337633" data-palette-color="url(#1d4234dd-f776-45db-ba79-950d09d738fa)"><path d="M0.65-21.15L0.65-21.15Q0.35-21.15 0-21.4L0-21.4Q-0.9-22.25-0.9-23.55L-0.9-23.55Q-0.9-25.1 0.43-26.78 1.75-28.45 4.35-29.45L4.35-29.45Q7.3-30.6 10.75-31.38 14.2-32.15 17.82-32.52 21.45-32.9 24.8-32.9L24.8-32.9Q26.05-32.9 27.25-32.85 28.45-32.8 29.55-32.7L29.55-32.7Q36.9-32 40.78-29.9 44.65-27.8 44.65-25.5L44.65-25.5Q44.65-24.55 44-23.7L44-23.7Q43.7-23.3 43.13-22.93 42.55-22.55 42.2-22.55L42.2-22.55Q41.9-22.55 41.9-22.85L41.9-22.85Q41.9-23.2 42.4-24L42.4-24Q43-24.9 43-25.65L43-25.65Q43-27.1 41.18-27.93 39.35-28.75 36.43-29.08 33.5-29.4 30.15-29.4L30.15-29.4Q27.85-29.4 25.5-29.28 23.15-29.15 21.1-28.95L21.1-28.95Q20.15-28.85 18.23-28.6 16.3-28.35 13.9-27.98 11.5-27.6 9.05-27.08 6.6-26.55 4.55-25.9 2.5-25.25 1.23-24.48-0.05-23.7-0.05-22.75L-0.05-22.75Q-0.05-22.1 0.7-21.4L0.7-21.4Q0.8-21.3 0.8-21.25L0.8-21.25Q0.8-21.15 0.65-21.15ZM14.4 4.05L14.4 4.05Q11.8 3.85 10.85 2.4 9.9 0.95 9.9-1L9.9-1Q9.9-2.65 10.35-4.4 10.8-6.15 11.3-7.6L11.3-7.6Q11.8-9 12.63-10.55 13.45-12.1 14.88-14.25 16.3-16.4 18.6-19.65 20.9-22.9 24.3-27.7L24.3-27.7Q24.9-28.45 25.35-28.45L25.35-28.45Q25.65-28.45 25.78-28.23 25.9-28 25.8-27.8L25.8-27.8Q21.1-20.85 18.57-15.88 16.05-10.9 14.85-7.4L14.85-7.4Q14.6-6.7 14.23-5.43 13.85-4.15 13.55-2.68 13.25-1.2 13.25 0.1L13.25 0.1Q13.25 1.5 13.75 2.5 14.25 3.5 15.5 3.5L15.5 3.5Q16.25 3.5 16.9 3L16.9 3Q17.15 2.85 17.2 2.85L17.2 2.85Q17.3 2.85 17.3 2.95L17.3 2.95Q17.3 3.1 17 3.35L17 3.35Q16.05 4.2 14.4 4.05ZM33.5 1.65L33.5 1.65Q31.85 1.7 29.85 1.38 27.85 1.05 25.95 0.25 24.05-0.55 22.65-1.85 21.25-3.15 20.75-5.05L20.75-5.05Q22.55-3.45 25.65-2.73 28.75-2 31.95-2L31.95-2Q36.2-2 39.35-2.95L39.35-2.95Q40.25-3.2 41.45-3.78 42.65-4.35 43.8-5.13 44.95-5.9 45.72-6.85 46.5-7.8 46.5-8.8L46.5-8.8Q46.5-9.5 46.05-10.15 45.6-10.8 44.6-11.45L44.6-11.45Q44-11.8 42.87-12.23 41.75-12.65 40.45-13.23 39.15-13.8 38-14.58 36.85-15.35 36.17-16.43 35.5-17.5 35.65-18.9L35.65-18.9Q35.9-20.95 37.52-22.98 39.15-25 41.62-26.78 44.1-28.55 46.97-29.9 49.85-31.25 52.62-32.02 55.4-32.8 57.55-32.8L57.55-32.8Q59.75-32.8 61.32-31.95 62.9-31.1 62.65-29.05L62.65-29.05Q62.55-28.15 61.42-26.9 60.3-25.65 58.75-24.15 57.2-22.65 55.67-21 54.15-19.35 53.17-17.65 52.2-15.95 52.3-14.35L52.3-14.35Q51.5-15 51.12-15.8 50.75-16.6 50.75-17.45L50.75-17.45Q50.75-18.65 51.25-19.9 51.75-21.15 52.5-22.28 53.25-23.4 53.9-24.2L53.9-24.2Q55.05-25.6 56.5-26.85 57.95-28.1 59.45-29.15L59.45-29.15Q59-29.8 57.9-29.8L57.9-29.8Q56.75-29.8 55.32-29.3 53.9-28.8 52.67-28.23 51.45-27.65 50.95-27.35L50.95-27.35Q48.8-26.2 46.62-24.75 44.45-23.3 42.62-21.8 40.8-20.3 39.67-19.03 38.55-17.75 38.45-16.9L38.45-16.9Q38.35-15.85 39.35-15.13 40.35-14.4 41.95-13.8 43.55-13.2 45.1-12.4L45.1-12.4Q47.2-11.35 48.15-10 49.1-8.65 49.1-7.2L49.1-7.2Q49.1-5.4 47.75-3.68 46.4-1.95 44.1-0.8L44.1-0.8Q42.05 0.2 39.82 0.75 37.6 1.3 35.87 1.48 34.15 1.65 33.5 1.65Z" opacity="1" transform="matrix(1,0,0,1,0,0)" fill="white" class="wordmark-text-0" id="SvgjsPath1358"></path></svg></g></svg></g></svg></g></svg></g><g><svg viewBox="0 0 244.43135999999996 291.40300304276036" height="291.40300304276036" width="244.43135999999996"><g><svg xmlns="http://www.w3.org/2000/svg" xmlns:xlink="http://www.w3.org/1999/xlink" version="1.1" x="0" y="0" viewBox="27.508 27.907000126966118 40.18900000000001 47.911999873033885" enable-background="new 0 0 100 100" xml:space="preserve" height="291.40300304276036" width="244.43135999999996" class="icon-icon-0" data-fill-palette-color="accent" id="SvgjsSvg1357"><path d="M54.666 49.756C47.48 49.756 41.634 55.602 41.634 62.788S47.481 75.819 54.666 75.819 67.697 69.973 67.697 62.788 61.852 49.756 54.666 49.756M54.666 72.819C49.134 72.819 44.634 68.319 44.634 62.788S49.134 52.756 54.666 52.756C60.197 52.756 64.697 57.256 64.697 62.788 64.697 68.319 60.197 72.819 54.666 72.819" fill="black"></path><path d="M34.375 30.514C30.589 30.514 27.508 33.595 27.508 37.381S30.589 44.248 34.375 44.248 41.241 41.167 41.241 37.381 38.161 30.514 34.375 30.514M34.375 41.248C32.242 41.248 30.508 39.514 30.508 37.381S32.242 33.514 34.375 33.514 38.241 35.248 38.241 37.381 36.507 41.248 34.375 41.248" fill="black"></path><circle cx="33.587" cy="61.151" r="5.4" fill="black"></circle><circle cx="42.15" cy="46.04" r="2.4" fill="black"></circle><circle cx="50.465" cy="31.021" r="3.1" fill="black"></circle><circle cx="61.841" cy="41.909" r="4.5" fill="black"></circle></svg></g></svg></g></svg></g></svg></g></svg></g><defs><mask></mask></defs></svg><rect width="395.52" height="166.01589204980212" fill="black" stroke="none" visibility="hidden"></rect></g></mask><linearGradient x1="0.054" x2="0.941" y1="0.5" y2="0.5" id="1d4234dd-f776-45db-ba79-950d09d738fa"><stop stop-color="#0f3054" offset="0"></stop><stop stop-color="#3b8dcb" offset="0.498"></stop><stop stop-color="#0f3054" offset="1"></stop></linearGradient><rect width="395.52" height="166.01589204980212" fill="url(#1d4234dd-f776-45db-ba79-950d09d738fa)" mask="url(#b6ccf57f-eb58-42dc-b87e-cda7d4b73fba)" data-fill-palette-color="primary"></rect><mask id="92fd7e22-7ff4-4879-8492-a22aaffc950f"><g id="SvgjsG1370"><svg viewBox="0 0 395.52 166.01589204980212" height="166.01589204980212" width="395.52"><g><svg viewBox="0 0 395.52 166.01589204980212" height="166.01589204980212" width="395.52"><g><svg viewBox="0 0 395.52 166.01589204980212" height="166.01589204980212" width="395.52"><g><svg viewBox="0 0 694.2450770249013 291.40300304276036" height="166.01589204980212" width="395.52"><g transform="matrix(1,0,0,1,298.72507702490134,30.709471359692017)"><svg viewBox="0 0 395.52 229.98406032337633" height="229.98406032337633" width="395.52"><g id="SvgjsG1369"><svg viewBox="0 0 395.52 229.98406032337633" height="229.98406032337633" width="395.52" id="SvgjsSvg1368"><g><svg viewBox="0 0 395.52 229.98406032337633" height="229.98406032337633" width="395.52"><g transform="matrix(1,0,0,1,0,0)"><svg width="395.52" viewBox="-0.9 -32.9 63.58415040518799 36.971875" height="229.98406032337633" data-palette-color="url(#1d4234dd-f776-45db-ba79-950d09d738fa)"></svg></g></svg></g></svg></g></svg></g><g><svg viewBox="0 0 244.43135999999996 291.40300304276036" height="291.40300304276036" width="244.43135999999996"><g><svg xmlns="http://www.w3.org/2000/svg" xmlns:xlink="http://www.w3.org/1999/xlink" version="1.1" x="0" y="0" viewBox="27.508 27.907000126966118 40.18900000000001 47.911999873033885" enable-background="new 0 0 100 100" xml:space="preserve" height="291.40300304276036" width="244.43135999999996" class="icon-icon-0" data-fill-palette-color="accent" id="SvgjsSvg1367"><path d="M54.666 49.756C47.48 49.756 41.634 55.602 41.634 62.788S47.481 75.819 54.666 75.819 67.697 69.973 67.697 62.788 61.852 49.756 54.666 49.756M54.666 72.819C49.134 72.819 44.634 68.319 44.634 62.788S49.134 52.756 54.666 52.756C60.197 52.756 64.697 57.256 64.697 62.788 64.697 68.319 60.197 72.819 54.666 72.819" fill="white"></path><path d="M34.375 30.514C30.589 30.514 27.508 33.595 27.508 37.381S30.589 44.248 34.375 44.248 41.241 41.167 41.241 37.381 38.161 30.514 34.375 30.514M34.375 41.248C32.242 41.248 30.508 39.514 30.508 37.381S32.242 33.514 34.375 33.514 38.241 35.248 38.241 37.381 36.507 41.248 34.375 41.248" fill="white"></path><circle cx="33.587" cy="61.151" r="5.4" fill="white"></circle><circle cx="42.15" cy="46.04" r="2.4" fill="white"></circle><circle cx="50.465" cy="31.021" r="3.1" fill="white"></circle><circle cx="61.841" cy="41.909" r="4.5" fill="white"></circle></svg></g></svg></g></svg></g></svg></g></svg></g><defs><mask></mask></defs><mask><g id="SvgjsG1366"><svg viewBox="0 0 395.52 166.01589204980212" height="166.01589204980212" width="395.52"><g><svg viewBox="0 0 395.52 166.01589204980212" height="166.01589204980212" width="395.52"><g><svg viewBox="0 0 395.52 166.01589204980212" height="166.01589204980212" width="395.52"><g><svg viewBox="0 0 694.2450770249013 291.40300304276036" height="166.01589204980212" width="395.52"><g transform="matrix(1,0,0,1,298.72507702490134,30.709471359692017)"><svg viewBox="0 0 395.52 229.98406032337633" height="229.98406032337633" width="395.52"><g id="SvgjsG1365"><svg viewBox="0 0 395.52 229.98406032337633" height="229.98406032337633" width="395.52" id="SvgjsSvg1364"><g><svg viewBox="0 0 395.52 229.98406032337633" height="229.98406032337633" width="395.52"><g transform="matrix(1,0,0,1,0,0)"><svg width="395.52" viewBox="-0.9 -32.9 63.58415040518799 36.971875" height="229.98406032337633" data-palette-color="url(#1d4234dd-f776-45db-ba79-950d09d738fa)"><path d="M0.65-21.15L0.65-21.15Q0.35-21.15 0-21.4L0-21.4Q-0.9-22.25-0.9-23.55L-0.9-23.55Q-0.9-25.1 0.43-26.78 1.75-28.45 4.35-29.45L4.35-29.45Q7.3-30.6 10.75-31.38 14.2-32.15 17.82-32.52 21.45-32.9 24.8-32.9L24.8-32.9Q26.05-32.9 27.25-32.85 28.45-32.8 29.55-32.7L29.55-32.7Q36.9-32 40.78-29.9 44.65-27.8 44.65-25.5L44.65-25.5Q44.65-24.55 44-23.7L44-23.7Q43.7-23.3 43.13-22.93 42.55-22.55 42.2-22.55L42.2-22.55Q41.9-22.55 41.9-22.85L41.9-22.85Q41.9-23.2 42.4-24L42.4-24Q43-24.9 43-25.65L43-25.65Q43-27.1 41.18-27.93 39.35-28.75 36.43-29.08 33.5-29.4 30.15-29.4L30.15-29.4Q27.85-29.4 25.5-29.28 23.15-29.15 21.1-28.95L21.1-28.95Q20.15-28.85 18.23-28.6 16.3-28.35 13.9-27.98 11.5-27.6 9.05-27.08 6.6-26.55 4.55-25.9 2.5-25.25 1.23-24.48-0.05-23.7-0.05-22.75L-0.05-22.75Q-0.05-22.1 0.7-21.4L0.7-21.4Q0.8-21.3 0.8-21.25L0.8-21.25Q0.8-21.15 0.65-21.15ZM14.4 4.05L14.4 4.05Q11.8 3.85 10.85 2.4 9.9 0.95 9.9-1L9.9-1Q9.9-2.65 10.35-4.4 10.8-6.15 11.3-7.6L11.3-7.6Q11.8-9 12.63-10.55 13.45-12.1 14.88-14.25 16.3-16.4 18.6-19.65 20.9-22.9 24.3-27.7L24.3-27.7Q24.9-28.45 25.35-28.45L25.35-28.45Q25.65-28.45 25.78-28.23 25.9-28 25.8-27.8L25.8-27.8Q21.1-20.85 18.57-15.88 16.05-10.9 14.85-7.4L14.85-7.4Q14.6-6.7 14.23-5.43 13.85-4.15 13.55-2.68 13.25-1.2 13.25 0.1L13.25 0.1Q13.25 1.5 13.75 2.5 14.25 3.5 15.5 3.5L15.5 3.5Q16.25 3.5 16.9 3L16.9 3Q17.15 2.85 17.2 2.85L17.2 2.85Q17.3 2.85 17.3 2.95L17.3 2.95Q17.3 3.1 17 3.35L17 3.35Q16.05 4.2 14.4 4.05ZM33.5 1.65L33.5 1.65Q31.85 1.7 29.85 1.38 27.85 1.05 25.95 0.25 24.05-0.55 22.65-1.85 21.25-3.15 20.75-5.05L20.75-5.05Q22.55-3.45 25.65-2.73 28.75-2 31.95-2L31.95-2Q36.2-2 39.35-2.95L39.35-2.95Q40.25-3.2 41.45-3.78 42.65-4.35 43.8-5.13 44.95-5.9 45.72-6.85 46.5-7.8 46.5-8.8L46.5-8.8Q46.5-9.5 46.05-10.15 45.6-10.8 44.6-11.45L44.6-11.45Q44-11.8 42.87-12.23 41.75-12.65 40.45-13.23 39.15-13.8 38-14.58 36.85-15.35 36.17-16.43 35.5-17.5 35.65-18.9L35.65-18.9Q35.9-20.95 37.52-22.98 39.15-25 41.62-26.78 44.1-28.55 46.97-29.9 49.85-31.25 52.62-32.02 55.4-32.8 57.55-32.8L57.55-32.8Q59.75-32.8 61.32-31.95 62.9-31.1 62.65-29.05L62.65-29.05Q62.55-28.15 61.42-26.9 60.3-25.65 58.75-24.15 57.2-22.65 55.67-21 54.15-19.35 53.17-17.65 52.2-15.95 52.3-14.35L52.3-14.35Q51.5-15 51.12-15.8 50.75-16.6 50.75-17.45L50.75-17.45Q50.75-18.65 51.25-19.9 51.75-21.15 52.5-22.28 53.25-23.4 53.9-24.2L53.9-24.2Q55.05-25.6 56.5-26.85 57.95-28.1 59.45-29.15L59.45-29.15Q59-29.8 57.9-29.8L57.9-29.8Q56.75-29.8 55.32-29.3 53.9-28.8 52.67-28.23 51.45-27.65 50.95-27.35L50.95-27.35Q48.8-26.2 46.62-24.75 44.45-23.3 42.62-21.8 40.8-20.3 39.67-19.03 38.55-17.75 38.45-16.9L38.45-16.9Q38.35-15.85 39.35-15.13 40.35-14.4 41.95-13.8 43.55-13.2 45.1-12.4L45.1-12.4Q47.2-11.35 48.15-10 49.1-8.65 49.1-7.2L49.1-7.2Q49.1-5.4 47.75-3.68 46.4-1.95 44.1-0.8L44.1-0.8Q42.05 0.2 39.82 0.75 37.6 1.3 35.87 1.48 34.15 1.65 33.5 1.65Z" opacity="1" transform="matrix(1,0,0,1,0,0)" fill="black" class="wordmark-text-0" id="SvgjsPath1363"></path></svg></g></svg></g></svg></g></svg></g><g><svg viewBox="0 0 244.43135999999996 291.40300304276036" height="291.40300304276036" width="244.43135999999996"><g><svg xmlns="http://www.w3.org/2000/svg" xmlns:xlink="http://www.w3.org/1999/xlink" version="1.1" x="0" y="0" viewBox="27.508 27.907000126966118 40.18900000000001 47.911999873033885" enable-background="new 0 0 100 100" xml:space="preserve" height="291.40300304276036" width="244.43135999999996" class="icon-icon-0" data-fill-palette-color="accent" id="SvgjsSvg1362"><path d="M54.666 49.756C47.48 49.756 41.634 55.602 41.634 62.788S47.481 75.819 54.666 75.819 67.697 69.973 67.697 62.788 61.852 49.756 54.666 49.756M54.666 72.819C49.134 72.819 44.634 68.319 44.634 62.788S49.134 52.756 54.666 52.756C60.197 52.756 64.697 57.256 64.697 62.788 64.697 68.319 60.197 72.819 54.666 72.819" fill="black"></path><path d="M34.375 30.514C30.589 30.514 27.508 33.595 27.508 37.381S30.589 44.248 34.375 44.248 41.241 41.167 41.241 37.381 38.161 30.514 34.375 30.514M34.375 41.248C32.242 41.248 30.508 39.514 30.508 37.381S32.242 33.514 34.375 33.514 38.241 35.248 38.241 37.381 36.507 41.248 34.375 41.248" fill="black"></path><circle cx="33.587" cy="61.151" r="5.4" fill="black"></circle><circle cx="42.15" cy="46.04" r="2.4" fill="black"></circle><circle cx="50.465" cy="31.021" r="3.1" fill="black"></circle><circle cx="61.841" cy="41.909" r="4.5" fill="black"></circle></svg></g></svg></g></svg></g></svg></g></svg></g><defs><mask></mask></defs></svg><rect width="395.52" height="166.01589204980212" fill="black" stroke="none" visibility="hidden"></rect></g></mask></svg><rect width="395.52" height="166.01589204980212" fill="black" stroke="none" visibility="hidden"></rect></g></mask><linearGradient x1="0.054" x2="0.941" y1="0.5" y2="0.5" id="8bb61c2d-f08b-4f56-b1e7-8dbf69f7d0de"><stop stop-color="#0f3054" offset="0"></stop><stop stop-color="#3b8dcb" offset="0.498"></stop><stop stop-color="#0f3054" offset="1"></stop></linearGradient><rect width="395.52" height="166.01589204980212" fill="url(#8bb61c2d-f08b-4f56-b1e7-8dbf69f7d0de)" mask="url(#92fd7e22-7ff4-4879-8492-a22aaffc950f)" data-fill-palette-color="accent"></rect></svg><rect width="395.52" height="166.01589204980212" fill="none" stroke="none" visibility="hidden"></rect></g></svg></g></svg>